<svg xmlns="http://www.w3.org/2000/svg" width="32" height="32"><path d="M29 0h-26c-1.657 0-3 1.343-3 3v20c0 1.657 1.343 3 3 3h21l5 6v-6c1.657 0 3-1.343 3-3v-20c0-1.657-1.343-3-3-3zm-.398 18.825c-.134-.032-.466-.101-.341.15l.099.179c-.042.091-.185.088-.268.11-.215.057-.621.155-.829.004.027.079.057.129-.031.158l-.243.055c-.167.019-.336.008-.502-.015-.17-.025-.346-.036-.513-.079-.171-.044-.317-.145-.48-.213.114.202.227.412.362.604l.126.166c.06.071.45.454.214.513-.233.058-.532-.121-.727-.228-.285-.155-.561-.324-.854-.465.076.036.063.29.081.364-.372.073-.75-.088-1.096-.193-.131-.041-.233-.063-.32.055-.073.1-.188.136-.307.147-.259.025-.52-.041-.777-.064-.112-.007-.205.01-.3.027l-.135.018c-.162.016-.281-.073-.427-.121-.129-.044-.257-.012-.389-.022-.155-.014-.258-.074-.418-.033-.143.039-.29.058-.425-.016-.147-.079-.233-.139-.404-.156-.291-.029-.676.127-.876-.147l-.163-.004c-.062.07-.193.009-.268-.005-.175-.036-.568-.033-.512-.296l-.007-.041-.356.073-.158-.062.008-.05-.106-.012c-.162.105-.35.142-.56.029l-.131-.078-.155-.03c-.094-.042-.168-.12-.237-.194l-.057-.049-.504-.144-.103-.001c-.117.004-.188-.09-.295-.11-.094-.017-.183.035-.269.064-.218.07-.326-.104-.348-.299l.007-.277c-.197.052-.46.096-.642-.023-.2-.132-.073-.44-.045-.629-.019.125-.694-.035-.754-.165-.199.052-.399.038-.604.044-.781.022-1.514.62-2.073 1.114-.643.569-1.24 1.286-1.631 2.054-.374.731-.526.968-1.118 2.208-.052.108-.783-1.177-.783-1.177s-1.546.07-1.496.006c.933-1.194 1.579-2.066 1.967-2.496.564-.625 1.158-1.227 1.635-1.923.512-.746.812-1.296.886-2.196.022-.257.052-.567.11-.82.023-.099.196-.667.304-.687-.147.028-.478.168-.608.239l-.129.072c-.202.116-.414.207-.64.267-.227.06-.964.26-.895-.18-.21.057-.438.064-.599-.108-.06-.061-.082-.149-.108-.232-.025-.08-.053-.157-.12-.202-.142-.1-.308-.106-.419-.258-.096-.132-.21-.398-.143-.559-.187.091-.433-.053-.464-.258-.014-.095.019-.191.04-.283.019-.084-.032-.063-.096-.1l-.144-.113c-.047-.047-.171-.166-.165-.241.006-.085.097-.113.047-.207l-.172-.255c-.045-.138-.029-.279.061-.394-.111.036-.21-.117-.247-.2-.067-.152-.036-.297.087-.409-.138-.13-.336-.315-.356-.515-.007-.078.088-.185.034-.249l-.214-.151c-.113-.078-.201-.245-.232-.375-.031-.138.152-.274.282-.229-.316-.11-.676-.372-.731-.725-.029-.178.022-.264.198-.279.121-.01.261.002.15-.141-.09-.115-.576-.644-.379-.793.092-.068.231-.07.339-.078.214-.017.427-.029.64.008-.183-.326-.46-.586-.716-.853-.157-.163-.358-.348-.46-.552-.152-.301.484.011.558.045.41.189.819.38 1.24.545-.258-.352-.52-.703-.772-1.059-.125-.178-.248-.359-.34-.556-.034-.074-.186-.378.016-.348.165.025.34.165.472.255.183.123.356.26.53.394.356.274.726.53 1.116.754-.312-.569-.606-1.15-.794-1.775-.08-.266-.193-.603-.154-.886.033-.231.185-.078.266.033.305.417.501.908.786 1.338.132.201.282.389.441.566.266.297.561.569.858.836-.061-.283-.14-.564-.24-.835-.109-.296-.263-.574-.343-.88-.077-.299-.088-.606-.022-.908.032-.152.143-.51.368-.371.194.12.298.439.38.636.118.289.213.586.323.878.226.598.562 1.147.814 1.735-.107-.578-.198-1.157-.228-1.744-.015-.275-.014-.55.003-.825.008-.14.021-.498.187-.517.19-.021.33.45.378.581.183.505.292 1.031.413 1.554.247 1.06.809 2.032 1.599 2.788.406.387.887.647 1.383.899.506.255.988.547 1.484.821.233.128.577.284.559.279l.275.096c.244.066.495.085.742.01.224-.068.412-.22.631-.307.109-.043.224-.08.342-.088l.14.015c.079.014.128-.057.181-.103.445-.378.967-.453 1.534-.465.46-.011 1.065-.038 1.427.302.092.086.119.29.196.39l.131.167c.179.217.452.265.652.457l.052.057c.094.11.099.193.048.27-.121.181-.552.322-.832.681l-.144.177c-.258.313-.519.615-.627 1.009l-.04.182c-.07.424.033.818.361 1.135.352.34.807.543 1.204.825.46.324.862.723 1.28 1.097.434.391.878.765 1.343 1.117.204.155.44.274.659.408.249.154.476.338.717.503l.664.375c.24.164.442.324.721.427l.5.186.236.056c.293.043.611.032.893.127.132.045.354.134.405.284.067.199-.505.127-.575.108z"/></svg>