<?xml version="1.0" encoding="utf-8"?>
<!-- Generator: Adobe Illustrator 17.0.0, SVG Export Plug-In . SVG Version: 6.00 Build 0)  -->
<!DOCTYPE svg PUBLIC "-//W3C//DTD SVG 1.1//EN" "http://www.w3.org/Graphics/SVG/1.1/DTD/svg11.dtd">
<svg version="1.1" id="Layer_1" xmlns="http://www.w3.org/2000/svg" xmlns:xlink="http://www.w3.org/1999/xlink" x="0px" y="0px"
	 width="32px" height="32px" viewBox="0 0 32 32" enable-background="new 0 0 32 32" xml:space="preserve">
<path d="M20.197,0.879c-6.023,0-10.924,4.9-10.924,10.924c0,1.548,0.328,3.02,0.912,4.356l-9.306,9.306
	c-1.172,1.172-1.172,3.071,0,4.243l1.414,1.414c1.172,1.172,3.071,1.172,4.243,0l9.306-9.306c1.336,0.583,2.807,0.912,4.355,0.912
	c6.024,0,10.925-4.9,10.925-10.924C31.122,5.779,26.221,0.879,20.197,0.879z M20.197,18.727c-3.817,0-6.924-3.106-6.924-6.924
	s3.106-6.924,6.924-6.924c3.818,0,6.925,3.106,6.925,6.924S24.015,18.727,20.197,18.727z"/>
</svg>
