<?xml version="1.0" encoding="utf-8"?>
<!-- Generator: Adobe Illustrator 17.0.0, SVG Export Plug-In . SVG Version: 6.00 Build 0)  -->
<!DOCTYPE svg PUBLIC "-//W3C//DTD SVG 1.1//EN" "http://www.w3.org/Graphics/SVG/1.1/DTD/svg11.dtd">
<svg version="1.1" id="Layer_1" xmlns="http://www.w3.org/2000/svg" xmlns:xlink="http://www.w3.org/1999/xlink" x="0px" y="0px"
	 width="32px" height="32px" viewBox="0 0 32 32" enable-background="new 0 0 32 32" xml:space="preserve">
<g>
	<path d="M29,0H3C1.343,0,0,1.343,0,3v20c0,1.657,1.343,3,3,3h21l5,6v-6c1.657,0,3-1.343,3-3V3C32,1.343,30.657,0,29,0z
		 M28.602,18.825c-0.134-0.032-0.466-0.101-0.341,0.15c0.012,0.027,0.11,0.155,0.099,0.179c-0.042,0.091-0.185,0.088-0.268,0.11
		c-0.215,0.057-0.621,0.155-0.829,0.004c0.027,0.079,0.057,0.129-0.031,0.158c-0.079,0.028-0.16,0.046-0.243,0.055
		c-0.167,0.019-0.336,0.008-0.502-0.015c-0.17-0.025-0.346-0.036-0.513-0.079c-0.171-0.044-0.317-0.145-0.48-0.213
		c0.114,0.202,0.227,0.412,0.362,0.604c0.039,0.058,0.081,0.112,0.126,0.166c0.06,0.071,0.45,0.454,0.214,0.513
		c-0.233,0.058-0.532-0.121-0.727-0.228c-0.285-0.155-0.561-0.324-0.854-0.465c0.076,0.036,0.063,0.29,0.081,0.364
		c-0.372,0.073-0.75-0.088-1.096-0.193c-0.131-0.041-0.233-0.063-0.32,0.055c-0.073,0.1-0.188,0.136-0.307,0.147
		c-0.259,0.025-0.52-0.041-0.777-0.064c-0.112-0.007-0.205,0.01-0.3,0.027c-0.044,0.007-0.088,0.014-0.135,0.018
		c-0.162,0.016-0.281-0.073-0.427-0.121c-0.129-0.044-0.257-0.012-0.389-0.022c-0.155-0.014-0.258-0.074-0.418-0.033
		c-0.143,0.039-0.29,0.058-0.425-0.016c-0.147-0.079-0.233-0.139-0.404-0.156c-0.291-0.029-0.676,0.127-0.876-0.147l-0.163-0.004
		c-0.062,0.07-0.193,0.009-0.268-0.005c-0.175-0.036-0.568-0.033-0.512-0.296l-0.007-0.041c-0.119,0.022-0.236,0.049-0.356,0.073
		c-0.044,0.009-0.122-0.041-0.158-0.062c-0.028-0.016-0.017-0.035,0.008-0.05l-0.106-0.012c-0.162,0.105-0.35,0.142-0.56,0.029
		c-0.044-0.024-0.088-0.052-0.131-0.078c-0.054,0.001-0.107-0.009-0.155-0.03c-0.094-0.042-0.168-0.12-0.237-0.194
		c-0.017-0.018-0.036-0.034-0.057-0.049l-0.504-0.144c-0.037-0.001-0.071-0.001-0.103-0.001c-0.117,0.004-0.188-0.09-0.295-0.11
		c-0.094-0.017-0.183,0.035-0.269,0.064c-0.218,0.07-0.326-0.104-0.348-0.299c-0.01-0.091-0.007-0.186,0.007-0.277
		c-0.197,0.052-0.46,0.096-0.642-0.023c-0.2-0.132-0.073-0.44-0.045-0.629c-0.019,0.125-0.694-0.035-0.754-0.165
		c-0.199,0.052-0.399,0.038-0.604,0.044c-0.781,0.022-1.514,0.62-2.073,1.114c-0.643,0.569-1.24,1.286-1.631,2.054
		C8.485,21.263,8.333,21.5,7.741,22.74c-0.052,0.108-0.783-1.177-0.783-1.177s-1.546,0.07-1.496,0.006
		c0.933-1.194,1.579-2.066,1.967-2.496c0.564-0.625,1.158-1.227,1.635-1.923c0.512-0.746,0.812-1.296,0.886-2.196
		c0.022-0.257,0.052-0.567,0.11-0.82c0.023-0.099,0.196-0.667,0.304-0.687c-0.147,0.028-0.478,0.168-0.608,0.239
		c-0.043,0.023-0.086,0.047-0.129,0.072c-0.202,0.116-0.414,0.207-0.64,0.267c-0.227,0.06-0.964,0.26-0.895-0.18
		c-0.21,0.057-0.438,0.064-0.599-0.108c-0.06-0.061-0.082-0.149-0.108-0.232c-0.025-0.08-0.053-0.157-0.12-0.202
		c-0.142-0.1-0.308-0.106-0.419-0.258c-0.096-0.132-0.21-0.398-0.143-0.559c-0.187,0.091-0.433-0.053-0.464-0.258
		c-0.014-0.095,0.019-0.191,0.04-0.283c0.019-0.084-0.032-0.063-0.096-0.1c-0.053-0.031-0.101-0.07-0.144-0.113
		c-0.047-0.047-0.171-0.166-0.165-0.241c0.006-0.085,0.097-0.113,0.047-0.207c-0.051-0.095-0.136-0.15-0.172-0.255
		C5.704,10.891,5.72,10.75,5.81,10.635c-0.111,0.036-0.21-0.117-0.247-0.2c-0.067-0.152-0.036-0.297,0.087-0.409
		C5.512,9.896,5.314,9.711,5.294,9.511C5.287,9.433,5.382,9.326,5.328,9.262c-0.057-0.07-0.142-0.102-0.214-0.151
		C5.001,9.033,4.913,8.866,4.882,8.736C4.851,8.598,5.034,8.462,5.164,8.507c-0.316-0.11-0.676-0.372-0.731-0.725
		C4.404,7.604,4.455,7.518,4.631,7.503c0.121-0.01,0.261,0.002,0.15-0.141c-0.09-0.115-0.576-0.644-0.379-0.793
		c0.092-0.068,0.231-0.07,0.339-0.078c0.214-0.017,0.427-0.029,0.64,0.008c-0.183-0.326-0.46-0.586-0.716-0.853
		c-0.157-0.163-0.358-0.348-0.46-0.552C4.053,4.793,4.689,5.105,4.763,5.139c0.41,0.189,0.819,0.38,1.24,0.545
		C5.745,5.332,5.483,4.981,5.231,4.625c-0.125-0.178-0.248-0.359-0.34-0.556C4.857,3.995,4.705,3.691,4.907,3.721
		c0.165,0.025,0.34,0.165,0.472,0.255c0.183,0.123,0.356,0.26,0.53,0.394c0.356,0.274,0.726,0.53,1.116,0.754
		C6.713,4.555,6.419,3.974,6.231,3.349c-0.08-0.266-0.193-0.603-0.154-0.886c0.033-0.231,0.185-0.078,0.266,0.033
		c0.305,0.417,0.501,0.908,0.786,1.338C7.261,4.035,7.411,4.223,7.57,4.4c0.266,0.297,0.561,0.569,0.858,0.836
		C8.367,4.953,8.288,4.672,8.188,4.401c-0.109-0.296-0.263-0.574-0.343-0.88C7.768,3.222,7.757,2.915,7.823,2.613
		c0.032-0.152,0.143-0.51,0.368-0.371c0.194,0.12,0.298,0.439,0.38,0.636c0.118,0.289,0.213,0.586,0.323,0.878
		C9.12,4.354,9.456,4.903,9.708,5.491C9.601,4.913,9.51,4.334,9.48,3.747C9.465,3.472,9.466,3.197,9.483,2.922
		c0.008-0.14,0.021-0.498,0.187-0.517C9.86,2.384,10,2.855,10.048,2.986c0.183,0.505,0.292,1.031,0.413,1.554
		c0.247,1.06,0.809,2.032,1.599,2.788c0.406,0.387,0.887,0.647,1.383,0.899c0.506,0.255,0.988,0.547,1.484,0.821
		c0.233,0.128,0.577,0.284,0.559,0.279c0.09,0.036,0.182,0.07,0.275,0.096c0.244,0.066,0.495,0.085,0.742,0.01
		c0.224-0.068,0.412-0.22,0.631-0.307c0.109-0.043,0.224-0.08,0.342-0.088c0.051-0.003,0.091,0.007,0.14,0.015
		c0.079,0.014,0.128-0.057,0.181-0.103c0.445-0.378,0.967-0.453,1.534-0.465c0.46-0.011,1.065-0.038,1.427,0.302
		c0.092,0.086,0.119,0.29,0.196,0.39c0.042,0.057,0.085,0.113,0.131,0.167c0.179,0.217,0.452,0.265,0.652,0.457
		c0.021,0.021,0.037,0.039,0.052,0.057c0.094,0.11,0.099,0.193,0.048,0.27c-0.121,0.181-0.552,0.322-0.832,0.681
		c-0.047,0.059-0.095,0.118-0.144,0.177c-0.258,0.313-0.519,0.615-0.627,1.009c-0.017,0.061-0.03,0.121-0.04,0.182
		c-0.07,0.424,0.033,0.818,0.361,1.135c0.352,0.34,0.807,0.543,1.204,0.825c0.46,0.324,0.862,0.723,1.28,1.097
		c0.434,0.391,0.878,0.765,1.343,1.117c0.204,0.155,0.44,0.274,0.659,0.408c0.249,0.154,0.476,0.338,0.717,0.503
		c0.211,0.145,0.453,0.232,0.664,0.375c0.24,0.164,0.442,0.324,0.721,0.427c0.166,0.06,0.331,0.135,0.5,0.186
		c0.077,0.024,0.156,0.045,0.236,0.056c0.293,0.043,0.611,0.032,0.893,0.127c0.132,0.045,0.354,0.134,0.405,0.284
		C29.244,18.916,28.672,18.844,28.602,18.825z"/>
</g>
</svg>
