<svg xmlns="http://www.w3.org/2000/svg" width="168.657" height="139.552"><path class="svg-bird" fill="#F48053" d="M163.857 109.855c-.321-.959-1.743-1.527-2.588-1.814-1.808-.608-3.835-.538-5.712-.814-.511-.073-1.015-.203-1.508-.358-1.084-.328-2.138-.804-3.201-1.189-1.782-.656-3.068-1.682-4.607-2.729-1.345-.914-2.895-1.468-4.244-2.396-1.539-1.055-2.99-2.228-4.584-3.215-1.4-.854-2.914-1.618-4.216-2.607-2.973-2.252-5.813-4.645-8.59-7.144-2.673-2.396-5.245-4.944-8.184-7.017-2.538-1.803-5.448-3.101-7.7-5.276-2.102-2.024-2.757-4.547-2.311-7.256.064-.39.148-.774.258-1.161.688-2.518 2.359-4.45 4.008-6.452.312-.372.619-.753.92-1.129 1.786-2.296 4.543-3.199 5.318-4.354.328-.489.297-1.02-.305-1.725-.098-.118-.197-.232-.332-.364-1.282-1.228-3.024-1.535-4.172-2.924-.291-.343-.565-.698-.835-1.066-.491-.642-.665-1.943-1.251-2.494-2.314-2.174-6.182-2.005-9.122-1.934-3.632.082-6.966.561-9.812 2.976-.342.291-.652.747-1.157.659-.317-.054-.571-.114-.897-.096-.756.048-1.487.284-2.186.56-1.396.557-2.603 1.527-4.032 1.962-1.58.479-3.188.362-4.745-.062-.595-.166-1.18-.383-1.757-.615.118.036-2.085-.962-3.574-1.782-3.172-1.754-6.255-3.615-9.49-5.249-3.172-1.609-6.25-3.271-8.843-5.746-5.052-4.833-8.645-11.046-10.222-17.826-.778-3.339-1.474-6.707-2.643-9.936-.307-.841-1.201-3.85-2.419-3.716-1.058.122-1.142 2.414-1.188 3.233l-.004.073c-.11 1.758-.114 3.513-.021 5.272.194 3.753.774 7.459 1.459 11.152-1.61-3.76-3.764-7.267-5.208-11.09-.699-1.866-1.307-3.768-2.063-5.615-.524-1.261-1.189-3.3-2.431-4.067-1.439-.891-2.147 1.401-2.354 2.372-.422 1.928-.346 3.894.144 5.803.51 1.958 1.498 3.739 2.192 5.629.638 1.734 1.143 3.528 1.539 5.339-1.901-1.707-3.786-3.444-5.487-5.343-1.02-1.136-1.977-2.336-2.822-3.62-1.824-2.75-3.079-5.892-5.027-8.558-.52-.711-1.494-1.688-1.702-.209-.246 1.807.472 3.963.986 5.664 1.201 3.998 3.081 7.712 5.075 11.347-2.493-1.435-4.858-3.068-7.133-4.822-1.114-.856-2.218-1.732-3.391-2.518-.847-.575-1.963-1.468-3.02-1.629-1.289-.192-.321 1.755-.099 2.229.589 1.261 1.372 2.416 2.174 3.556 1.612 2.271 3.284 4.517 4.932 6.765-2.691-1.054-5.304-2.275-7.927-3.484-.469-.213-4.538-2.208-3.565-.285.651 1.305 1.938 2.489 2.942 3.532 1.638 1.705 3.409 3.369 4.58 5.454-1.361-.236-2.724-.163-4.094-.052-.694.052-1.578.063-2.168.498-1.26.952 1.847 4.335 2.422 5.07.71.914-.184.84-.957.903-1.128.096-1.454.648-1.271 1.784.355 2.256 2.652 3.934 4.675 4.638-.826-.291-1.998.58-1.799 1.46.199.834.761 1.903 1.483 2.397.457.313 1.005.516 1.368.966.345.41-.263 1.096-.215 1.594.125 1.282 1.392 2.465 2.278 3.292-.788.711-.98 1.644-.555 2.614.236.531.867 1.508 1.577 1.28-.577.74-.682 1.638-.38 2.514.232.675.776 1.029 1.102 1.633.323.604-.261.782-.3 1.324-.04.483.753 1.238 1.055 1.541.275.276.582.527.92.722.411.24.737.104.614.642-.139.589-.348 1.202-.258 1.811.199 1.311 1.766 2.228 2.965 1.648-.426 1.029.302 2.729.916 3.572.708.97 1.767 1.01 2.677 1.647.426.293.604.783.767 1.295.169.531.312 1.092.693 1.482 1.024 1.103 2.483 1.059 3.829.693-.444 2.816 4.27 1.536 5.723 1.153 1.445-.382 2.8-.962 4.094-1.706.278-.158.551-.31.826-.457.832-.455 1.685-.871 2.625-1.051-.694.125-1.48 3.981-1.628 4.615-.372 1.615-.559 3.252-.698 4.896-.474 5.754-1.459 8.915-4.73 13.684-5.215 7.621-7.631 9.085-13.746 15.952-4.111 4.614-6.992 6.335-9.288 12.308-.188.487 1.969.059 2.143.01 3.315-.788 5.006-1.555 8.283-2.518.094-.024 1.261-.306 1.261-.416 0 1.397 0 1.397.203 2.621.273 1.622.005 1.748.495 3.309.316 1.005.619 2.029 1.054 2.989.519 1.156 1.133 1.493 2.03.471 1.479-1.717 2.002-2.938 2.647-5.047 1.989-6.565 2.859-7.305 6.99-12.853 3.059-4.103 4.375-5.755 8.587-9.239 3.477-2.88 6.922-6.102 11.701-6.238 1.307-.037 2.591.052 3.861-.28.384.836 4.703 1.855 4.823 1.058-.177 1.21-.99 3.176.287 4.022 1.165.762 2.846.483 4.107.148-.09.586-.109 1.19-.044 1.773.138 1.247.832 2.355 2.225 1.909.551-.18 1.124-.513 1.723-.406.684.127 1.139.725 1.886.701.203-.004.425-.004.659.004l3.226.919c.133.095.256.198.365.315.441.472.911.975 1.514 1.24.308.14.647.199.992.194.275.169.557.348.84.502 1.346.724 2.549.489 3.584-.185l.68.077c-.16.093-.232.214-.053.318.232.133.729.456 1.01.397.766-.151 1.518-.324 2.277-.465l.042.262c-.354 1.682 2.158 1.663 3.276 1.895.479.093 1.322.483 1.716.033l1.042.026c1.28 1.752 3.739.753 5.6.941 1.096.11 1.645.496 2.583 1 .864.47 1.805.349 2.721.102 1.024-.263 1.68.122 2.671.213.848.067 1.663-.136 2.49.144.93.311 1.693.875 2.728.774.298-.024.577-.069.86-.116.608-.107 1.207-.218 1.86-.175l.061.005c1.643.15 3.311.571 4.967.411.763-.073 1.501-.305 1.965-.942.56-.753 1.213-.613 2.05-.352 2.215.671 4.631 1.7 7.01 1.236-.117-.473-.033-2.102-.52-2.33 1.875.903 3.641 1.98 5.463 2.973 1.242.681 3.154 1.827 4.646 1.455 1.506-.373-.985-2.824-1.369-3.277-.287-.348-.557-.694-.808-1.062-.866-1.223-1.589-2.57-2.317-3.86 1.042.436 1.973 1.077 3.068 1.361 1.07.271 2.191.344 3.281.505 1.059.148 2.139.216 3.207.095.529-.062 1.049-.175 1.553-.353.565-.188.372-.507.199-1.011 1.33.967 3.928.343 5.301-.022.528-.14 1.445-.121 1.711-.701.074-.154-.551-.972-.63-1.145-.796-1.605 1.322-1.162 2.183-.959.439.117 4.101.581 3.666-.709"/></svg>