<?xml version="1.0" encoding="utf-8"?>
<!-- Generator: Adobe Illustrator 17.0.0, SVG Export Plug-In . SVG Version: 6.00 Build 0)  -->
<!DOCTYPE svg PUBLIC "-//W3C//DTD SVG 1.1//EN" "http://www.w3.org/Graphics/SVG/1.1/DTD/svg11.dtd">
<svg version="1.1" id="Layer_2" xmlns="http://www.w3.org/2000/svg" xmlns:xlink="http://www.w3.org/1999/xlink" x="0px" y="0px"
	 width="30.522px" height="45.134px" viewBox="0 0 30.522 45.134" enable-background="new 0 0 30.522 45.134" xml:space="preserve">
<path fill="#FFFFFF" d="M26.65,28.472c0,0-3.709-6.926-5.698-7.138c-1.989-0.212-2.592,3.888-1.91,5.262
	c0.682,1.374-6.435,0.212-8.089-1.81c-1.654-2.022-2.436-6.222-2.436-6.222s7.496,2.479,5.407-0.56S3.209,17.738,1.299,18.789
	c-1.91,1.05-2.737-2.067,4.972-5.788c7.708-3.72,9.45-3.866,12.456,0.122c0,0,2.179,0.872,3.777-1.017
	c1.597-1.888,3.017,0.559,1.833,1.9c-1.185,1.34-0.626,2.535,2.491,1.708c3.116-0.827,4.894,14.009,2.761,16.267
	C27.455,34.236,27.197,28.886,26.65,28.472z"/>
</svg>
