<?xml version="1.0" encoding="utf-8"?>
<!-- Generator: Adobe Illustrator 17.0.0, SVG Export Plug-In . SVG Version: 6.00 Build 0)  -->
<!DOCTYPE svg PUBLIC "-//W3C//DTD SVG 1.1//EN" "http://www.w3.org/Graphics/SVG/1.1/DTD/svg11.dtd">
<svg version="1.1" id="Layer_2" xmlns="http://www.w3.org/2000/svg" xmlns:xlink="http://www.w3.org/1999/xlink" x="0px" y="0px"
	 width="39.158px" height="45.134px" viewBox="0 0 39.158 45.134" enable-background="new 0 0 39.158 45.134" xml:space="preserve">
<path fill="#13769D" d="M2.569,27.018l6.649-1.195c0,0-9.125-5.132-8.335-14.12c0,0,10.59,12.412,15.616,12.654
	c5.026,0.243,5.136-1.072,5.026,0.243c-0.111,1.315-0.455,2.431-1.77,2.321c0,0,10.113,6.573,18.347,6.119
	c0,0-4.761,3.001-23.827-3.931c0,0-1.963-0.057-2.974,0.895c-1.01,0.954-2.237,1.925-3.569,1.598
	C6.398,31.276,2.979,29.379,2.569,27.018z"/>
</svg>
