<?xml version="1.0" encoding="utf-8"?>
<!-- Generator: Adobe Illustrator 17.0.0, SVG Export Plug-In . SVG Version: 6.00 Build 0)  -->
<!DOCTYPE svg PUBLIC "-//W3C//DTD SVG 1.1//EN" "http://www.w3.org/Graphics/SVG/1.1/DTD/svg11.dtd">
<svg version="1.1" id="Layer_2" xmlns="http://www.w3.org/2000/svg" xmlns:xlink="http://www.w3.org/1999/xlink" x="0px" y="0px"
	 width="25.071px" height="20.75px" viewBox="0 0 25.071 20.75" enable-background="new 0 0 25.071 20.75" xml:space="preserve">
<path fill="#13999D" d="M7.026,15.371c0,0,5.811-0.299,5.907-1.901c0.095-1.604-3.149-6.625-4.11-6.683
	C7.861,6.73,1.919,3.801,1.053,2.142C0.185,0.48,10.318,0.599,12.205,1.356c1.885,0.755,3.694,5.53,4.429,6.701
	c0.736,1.17,2.114-0.357,2.114-0.357s4.38-3.28,4.89-3.733c0.509-0.452,1.034,4.245-2.137,6.149
	c-3.171,1.904-0.549,3.83-4.002,5.073l2.375,3.361C19.874,18.55,11.022,23.979,7.026,15.371z"/>
</svg>
