<?xml version="1.0" encoding="utf-8"?>
<!-- Generator: Adobe Illustrator 17.0.0, SVG Export Plug-In . SVG Version: 6.00 Build 0)  -->
<!DOCTYPE svg PUBLIC "-//W3C//DTD SVG 1.1//EN" "http://www.w3.org/Graphics/SVG/1.1/DTD/svg11.dtd">
<svg version="1.1" id="Layer_2" xmlns="http://www.w3.org/2000/svg" xmlns:xlink="http://www.w3.org/1999/xlink" x="0px" y="0px"
	 width="43.6px" height="45.134px" viewBox="0 0 43.6 45.134" enable-background="new 0 0 43.6 45.134" xml:space="preserve">
<path fill="#13999D" d="M39.502,37.031c0,0-10.68,8.005-12.653,8.14c-1.973,0.137-6.264-0.757-7.434-6.227c0,0,8.87-2.66,9.6-5.486
	c0,0,0.163-1.465-2.214-1.433c-2.377,0.031-16.744-5.188-25.57-14.359c0,0,20,2.584,27.799,7.399c0,0-0.735-22.15-1.841-22.867
	c-1.107-0.716,1.746-3.424,4.373,3.068c2.629,6.493,6.006,14.255,5.815,19.158c0,0,2.032-1.197,2.696-2.103
	c0.664-0.905,2.878,0.528,1.646,2.793c-1.231,2.266-0.451,5.912-5.081,9.668C36.638,34.784,38.284,37.577,39.502,37.031z"/>
</svg>
