<?xml version="1.0" encoding="utf-8"?>
<!-- Generator: Adobe Illustrator 17.0.0, SVG Export Plug-In . SVG Version: 6.00 Build 0)  -->
<!DOCTYPE svg PUBLIC "-//W3C//DTD SVG 1.1//EN" "http://www.w3.org/Graphics/SVG/1.1/DTD/svg11.dtd">
<svg version="1.1" id="Layer_2" xmlns="http://www.w3.org/2000/svg" xmlns:xlink="http://www.w3.org/1999/xlink" x="0px" y="0px"
	 width="27.587px" height="16px" viewBox="0 0 27.587 16" enable-background="new 0 0 27.587 16" xml:space="preserve">
<path fill="#13999D" d="M21.094,11.236c0,0-6.592,5.661-13.665,2.91c0,0-1.577-0.973,1.886-1.462
	c3.464-0.49,4.247-3.019,4.247-3.019s-2.071-1.963-3.04-2.859C9.554,5.912,0.686,7.573,0,8.105C-0.685,8.636,3.74,0.537,17.38,1.49
	c0,0,1.119,2.153,2.011,3.657c0.892,1.504,3.309,0.728,3.995,0.196c0.685-0.531,3.352-2.049,4.072-0.412
	c0.721,1.637-1.631,9.225-5.912,10.075C21.546,15.005,21.167,13.101,21.094,11.236z"/>
</svg>
