<?xml version="1.0" encoding="utf-8"?>
<!-- Generator: Adobe Illustrator 17.0.0, SVG Export Plug-In . SVG Version: 6.00 Build 0)  -->
<!DOCTYPE svg PUBLIC "-//W3C//DTD SVG 1.1//EN" "http://www.w3.org/Graphics/SVG/1.1/DTD/svg11.dtd">
<svg version="1.1" id="Layer_2" xmlns="http://www.w3.org/2000/svg" xmlns:xlink="http://www.w3.org/1999/xlink" x="0px" y="0px"
	 width="29.237px" height="29px" viewBox="0 0 29.237 29" enable-background="new 0 0 29.237 29" xml:space="preserve">
<path fill="#13999D" d="M1.592,5.204c1.365-2.79,15.881-6.335,16.2-3.127c0.32,3.209,1.636,3.313,2.474,1.733
	c0.839-1.58,3.629-1.11,2.422,1.049c-1.208,2.159,0.374,3.893,0.374,3.893c4.79,1.414,5.265,3.097,4.488,11.62
	c-0.777,8.524-3.987,8.844-3.674,6.687c0.313-2.157-0.121-11.207-3.699-12.096s1.374,5.259,1.374,5.259s-4.207,0.743-6.681-0.096
	c-2.473-0.838-6.06-7.094-4.535-6.938c1.526,0.156,5.154-1.848,4.257-3.636c-0.897-1.788-8.684-2.829-8.684-2.829
	C5.328,6.357,0.228,7.994,1.592,5.204z"/>
</svg>
