<?xml version="1.0" encoding="utf-8"?>
<!-- Generator: Adobe Illustrator 17.0.0, SVG Export Plug-In . SVG Version: 6.00 Build 0)  -->
<!DOCTYPE svg PUBLIC "-//W3C//DTD SVG 1.1//EN" "http://www.w3.org/Graphics/SVG/1.1/DTD/svg11.dtd">
<svg version="1.1" id="Layer_2" xmlns="http://www.w3.org/2000/svg" xmlns:xlink="http://www.w3.org/1999/xlink" x="0px" y="0px"
	 width="35.47px" height="27.875px" viewBox="0 0 35.47 27.875" enable-background="new 0 0 35.47 27.875" xml:space="preserve">
<path fill="#13999D" d="M0.572,17.273l6.727-0.63c0,0-8.659-5.883-7.114-14.772c0,0,9.505,13.261,14.493,13.926
	c4.987,0.666,5.208-0.635,4.987,0.666c-0.222,1.301-0.659,2.384-1.96,2.163c0,0,9.523,7.402,17.765,7.645
	c0,0-4.997,2.589-23.41-5.926c0,0-1.951-0.223-3.039,0.641c-1.087,0.865-2.391,1.729-3.691,1.291
	C4.029,21.839,0.782,19.661,0.572,17.273z"/>
</svg>
