<svg xmlns="http://www.w3.org/2000/svg" width="43.6" height="46.951"><path fill="#13769D" d="M37.843 39.056s-11.821 7.292-13.878 7.248c-2.057-.044-6.42-1.373-7.119-7.152 0 0 9.443-1.923 10.465-4.783 0 0 .307-1.503-2.16-1.693-2.467-.191-16.866-6.951-25.151-17.284 0 0 20.484 4.558 28.115 10.28 0 0 1.32-23.025.241-23.872-1.08-.846 2.131-3.385 4.244 3.59 2.114 6.976 4.885 15.338 4.226 20.401 0 0 2.218-1.05 2.992-1.926.773-.876 2.933.817 1.444 3.05-1.489 2.233-1.023 6.085-6.175 9.542-.001.001 1.443 3.05 2.756 2.599z"/></svg>