<svg xmlns="http://www.w3.org/2000/svg" width="30.522" height="45.134"><path fill="#fff" d="M26.65 28.472s-3.709-6.926-5.698-7.138c-1.989-.212-2.592 3.888-1.91 5.262.682 1.374-6.435.212-8.089-1.81-1.654-2.022-2.436-6.222-2.436-6.222s7.496 2.479 5.407-.56-10.715-.266-12.625.785c-1.91 1.05-2.737-2.067 4.972-5.788 7.708-3.72 9.45-3.866 12.456.122 0 0 2.179.872 3.777-1.017 1.597-1.888 3.017.559 1.833 1.9-1.185 1.34-.626 2.535 2.491 1.708 3.116-.827 4.894 14.009 2.761 16.267-2.134 2.255-2.392-3.095-2.939-3.509z"/></svg>